<svg xmlns="http://www.w3.org/2000/svg" xmlns:xlink="http://www.w3.org/1999/xlink" width="357" height="279" viewBox="0 0 357 279">
  <defs>
    <clipPath id="clip-logo_1">
      <rect width="357" height="279"/>
    </clipPath>
  </defs>
  <g id="logo_1" data-name="logo – 1" clip-path="url(#clip-logo_1)">
    <g id="Group_13519" data-name="Group 13519" transform="translate(22.718 26.36)">
      <path id="Path_20959" data-name="Path 20959" d="M325.016,270.281a1.513,1.513,0,0,1-1.094-.977,1.466,1.466,0,0,1,1.024-1.838,1.791,1.791,0,0,1,.861,0l.186-1.024a2.767,2.767,0,0,0-1.443,0,2.537,2.537,0,0,0-1.792,3.165,2.327,2.327,0,0,0,.721,1.094l-.7.209v.977l4.445-1.3v-.977l-2.327.652Zm35.953.442-.721.209v.977l4.445-1.3v-.977l-2.327.652h0a1.536,1.536,0,0,1-1.094-.977,1.489,1.489,0,0,1,1.024-1.838,1.791,1.791,0,0,1,.861,0l.186-1.024a2.767,2.767,0,0,0-1.443,0,2.513,2.513,0,0,0-1.769,3.165,2.327,2.327,0,0,0,.721,1.094Zm-5.329,2.909a13.589,13.589,0,0,0-6.981-1.4c-4.91,0-9.075,2.467-9.075,8.4a6.981,6.981,0,0,0,7.214,7.214,5.585,5.585,0,0,0,4.654-1.722v1.536c0,.419,0,.954-1.07,1.675s-3.56,0-3.56,0-.884,2.327-1.047,2.63a10.541,10.541,0,0,0,4.049.745,5.585,5.585,0,0,0,4.282-1.373,4.841,4.841,0,0,0,1.629-3.4V273.725Zm-4.352,7.912c0,2.769-3.281,3.095-3.607,3.095s-3.63-.14-3.63-4.468a4.421,4.421,0,0,1,4.863-4.863,7.563,7.563,0,0,1,2.327.256v5.98Zm-28.529.814v-8.145l4.491-1.257V283.1a4.352,4.352,0,0,1-4.3,4.235h-7.609a7.377,7.377,0,0,1-7.749,5.306c-10.169,0-8.494-11.1-8.494-11.1l4.468-1.233a27.132,27.132,0,0,0,.186,5.724,3.77,3.77,0,0,0,3.933,3.258c3.4,0,3.7-2.327,3.747-3.467V278.17h0V267.512l4.468-1.28v16.126a15.847,15.847,0,0,1,0,1.955h4.84a2.024,2.024,0,0,0,2-1.955Zm9.006,4.98h4.468v-21.06l-4.468,1.28v19.826Zm44.376-19.826v19.826h4.491v-21.06l-4.491,1.28Zm-7.563,14.846V267.512l4.491-1.28V283.1a4.352,4.352,0,0,1-4.305,4.235H358.153v-3.025h2.071V273.26l4.491-1.28v12.287h1.862a2.024,2.024,0,0,0,2-1.955Zm95.547,1.419v-5.864a6.146,6.146,0,0,1,.3-1.885,5.422,5.422,0,0,1,2-2.792,7.369,7.369,0,0,1,1.513-.838,9.548,9.548,0,0,1,1.582-.489,8.234,8.234,0,0,1,1.7-.163h.163a8.555,8.555,0,0,1,1.536.14,8.353,8.353,0,0,1,1.606.466,6.511,6.511,0,0,1,1.513.861,5.748,5.748,0,0,1,1.233,1.257,5.585,5.585,0,0,1,.861,1.652,7.123,7.123,0,0,1,.349,2.048h0v5.259a3.443,3.443,0,0,1-.442,1.652,6.044,6.044,0,0,1-.605.745,4,4,0,0,1-.814.652,5.328,5.328,0,0,1-2.327.954,6.376,6.376,0,0,1-1.164,0,7.228,7.228,0,0,1-1.559-.163h0l-5.7-1.257H447.417v-2.327h9.006v-2.071a15.557,15.557,0,0,0-.116-1.908,9.519,9.519,0,0,0-.675-2.7,4.653,4.653,0,0,0-1.187-1.675,5.143,5.143,0,0,0-1.559-.931,8.549,8.549,0,0,0-1.769-.419l-1.792-.163,1.094-2.211h1.21a14.108,14.108,0,0,1,1.559.233,11.01,11.01,0,0,1,1.745.489,6.978,6.978,0,0,1,1.745.908,8.352,8.352,0,0,1,1.559,1.466,7.467,7.467,0,0,1,1.233,2.118,12.325,12.325,0,0,1,.7,2.932,15.2,15.2,0,0,1,.116,1.815,12.934,12.934,0,0,1-.116,2.071h3.886Zm4,.372,3.7.814a3.836,3.836,0,0,0,1.047.186h.209a1.651,1.651,0,0,0,.861-.279,1.4,1.4,0,0,0,.465-.628,2.327,2.327,0,0,0,.14-.814v-5.236a5.428,5.428,0,0,0-.186-1.443,4.659,4.659,0,0,0-.512-1.14,2.864,2.864,0,0,0-.721-.838,2.791,2.791,0,0,0-.861-.535,2.745,2.745,0,0,0-1-.209,4.052,4.052,0,0,0-1,.209,3.583,3.583,0,0,0-1.513,1.326,4.047,4.047,0,0,0-.605,2.327v6.26Zm-24.48-17.01v18.779h-3.956V267.14Zm-7.633,5.98v12.915a9.309,9.309,0,0,1-.442,2.327,5.771,5.771,0,0,1-2.164,2.979,7.4,7.4,0,0,1-1.652.861,10.4,10.4,0,0,1-1.885.582,18,18,0,0,1-2,.279h-4.305v-2.327h3.328a13,13,0,0,0,1.443-.163,5.489,5.489,0,0,0,1.187-.326,4.094,4.094,0,0,0,.977-.559,3.259,3.259,0,0,0,.745-.838,4.771,4.771,0,0,0,.535-1.21,6.648,6.648,0,0,0,.256-1.652V273.12Zm-11.635,8.866V273.12h-3.956v8.866h0a1.6,1.6,0,0,1-.186.814,1.745,1.745,0,0,1-.489.605,1.326,1.326,0,0,1-.884.372H417.12a1.373,1.373,0,0,1-.884-.372,1.652,1.652,0,0,1-.652-1.187v-9.1H411.6v9.1a1.652,1.652,0,0,1-.209.651,2.1,2.1,0,0,1-.465.535,1.327,1.327,0,0,1-.884.372h-1.838a1.373,1.373,0,0,1-.884-.372,1.653,1.653,0,0,1-.442-.535,1.374,1.374,0,0,1-.233-.651.652.652,0,0,0,0-.233V273.12h-3.909v12.822a6.025,6.025,0,0,1-.326,1.838,4.421,4.421,0,0,1-1.629,2.327,5.394,5.394,0,0,1-1.024.535h-2.35l-.721-.14a4.365,4.365,0,0,1-.7-.279,3.748,3.748,0,0,1-.838-.559,3.913,3.913,0,0,1-.7-.884,5.237,5.237,0,0,1-.512-1.257,10.193,10.193,0,0,1-.256-1.675v-9.494h-3.933V285.9a8.958,8.958,0,0,0,.372,2.327,6.768,6.768,0,0,0,.814,1.7,6.423,6.423,0,0,0,1.094,1.257,7.929,7.929,0,0,0,2.886,1.466,12.592,12.592,0,0,0,1.513.326H399.6l.745-.116a9.834,9.834,0,0,0,1.513-.419,11.068,11.068,0,0,0,1.675-.814,7.118,7.118,0,0,0,1.489-1.3,5.8,5.8,0,0,0,1.117-1.838,6.981,6.981,0,0,0,.535-2.467v-.163a7.236,7.236,0,0,0,1.606.163h1.792a7.5,7.5,0,0,0,1.955-.233,6.213,6.213,0,0,0,1.605-.7,5.581,5.581,0,0,0,1.606.7,7.208,7.208,0,0,0,1.931.233h1.7a7.287,7.287,0,0,0,2.327-.349,5.958,5.958,0,0,0,1.815-1,4.653,4.653,0,0,0,1.024-1.233,3.165,3.165,0,0,0,.372-1.513ZM214.948,280.1v1.885h0a1.606,1.606,0,0,0,.186.814,2,2,0,0,0,.931.884,1.234,1.234,0,0,0,.465,0h4.1a1.327,1.327,0,0,0,.884-.372,1.861,1.861,0,0,0,.675-1.187v-9.1h3.956v8.866a.651.651,0,0,1,0,.233,1.372,1.372,0,0,0,.233.651,1.722,1.722,0,0,0,.465.535,1.3,1.3,0,0,0,.884.372h4.887a1.327,1.327,0,0,0,.884-.372,1.744,1.744,0,0,0,.489-.605,1.908,1.908,0,0,0,.186-.815V267.047h3.956v14.846a3.187,3.187,0,0,1-.4,1.513,4.258,4.258,0,0,1-1.024,1.233,5.351,5.351,0,0,1-1.792,1,7.259,7.259,0,0,1-2.327.349H227.7a7.206,7.206,0,0,1-1.931-.233,6.052,6.052,0,0,1-1.629-.7,5.751,5.751,0,0,1-1.582.7,7.5,7.5,0,0,1-1.955.233H216.53a7.2,7.2,0,0,1-2.187-.3,6.653,6.653,0,0,1-1.769-.908,7.958,7.958,0,0,1-1.373.768,8.536,8.536,0,0,1-3.258.628h-.163a8.185,8.185,0,0,1-1.536-.14,9.089,9.089,0,0,1-1.606-.442,7.284,7.284,0,0,1-1.536-.884,5.746,5.746,0,0,1-1.233-1.257,6.026,6.026,0,0,1-.861-1.629,7.118,7.118,0,0,1-.349-2.048v-1.838a8.516,8.516,0,0,1,.163-1.606,5.4,5.4,0,0,1,.512-1.373,3.769,3.769,0,0,1,.954-1.187,6.662,6.662,0,0,1,1.606-.954,10.053,10.053,0,0,1,2.327-.651,21.109,21.109,0,0,1,3.048-.326h5.678V280.1Zm75.558-12.961v18.779H286.55V267.14Zm-7.633,0v14.846a3.188,3.188,0,0,1-.4,1.513,3.909,3.909,0,0,1-1.024,1.233,5.35,5.35,0,0,1-1.792,1,7.258,7.258,0,0,1-2.327.349H259.627v-2.327h9.006v-2.071a15.531,15.531,0,0,0,0-1.908,10.352,10.352,0,0,0-.675-2.7,4.653,4.653,0,0,0-1.187-1.675,5.144,5.144,0,0,0-1.559-.931,8.529,8.529,0,0,0-1.769-.419l-1.792-.163,1.07-2.211h1.21a14.96,14.96,0,0,1,1.559.233,11.007,11.007,0,0,1,1.745.489,6.98,6.98,0,0,1,1.745.908,8.36,8.36,0,0,1,1.559,1.466,7.47,7.47,0,0,1,1.233,2.118,12.334,12.334,0,0,1,.7,2.932,15.2,15.2,0,0,1,0,1.815v2.071h4.654a1.327,1.327,0,0,0,.884-.372,1.745,1.745,0,0,0,.489-.6,1.908,1.908,0,0,0,.186-.815V267.07Zm-26.761,18.9a9.308,9.308,0,0,1-.442,2.327,5.612,5.612,0,0,1-.884,1.7,6.676,6.676,0,0,1-1.28,1.28,7.4,7.4,0,0,1-1.652.861,10.4,10.4,0,0,1-1.885.582,17.985,17.985,0,0,1-2,.279h-4.305v-2.327h3.328a13,13,0,0,0,1.443-.163,5.488,5.488,0,0,0,1.187-.326,4.215,4.215,0,0,0,.954-.535,3.7,3.7,0,0,0,.745-.838,4.118,4.118,0,0,0,.535-1.164,7.425,7.425,0,0,0,.279-1.582,18.14,18.14,0,0,1-3.095-.163,16.073,16.073,0,0,1-2.327-.372,8.745,8.745,0,0,1-1.862-.605,5.748,5.748,0,0,1-1.373-.861,4.048,4.048,0,0,1-.954-1.164,5.4,5.4,0,0,1-.512-1.373,8.941,8.941,0,0,1-.163-1.606v-1.838a5.819,5.819,0,0,1,.349-2.048,6.118,6.118,0,0,1,.838-1.652,6.425,6.425,0,0,1,1.257-1.257,6.522,6.522,0,0,1,1.513-.861,8.517,8.517,0,0,1,3.165-.605h.163a8.073,8.073,0,0,1,3.258.652,7.2,7.2,0,0,1,1.489.838,4.98,4.98,0,0,1,1.21,1.21,5.98,5.98,0,0,1,.814,1.582,6.142,6.142,0,0,1,.3,1.885v6.981l-.116,1.094Zm-3.979-8.145a4.236,4.236,0,0,0-.605-2.327,3.7,3.7,0,0,0-1.559-1.326,3.888,3.888,0,0,0-.977-.21,2.651,2.651,0,0,0-.977.209,3.607,3.607,0,0,0-1.606,1.373,4.654,4.654,0,0,0-.7,2.583v1.536a11.064,11.064,0,0,0,0,1.3,4.962,4.962,0,0,0,.3,1.047,2.094,2.094,0,0,0,.582.768,4,4,0,0,0,1.862.745,20.085,20.085,0,0,0,3.584.256v-5.934Zm-32.695,12.868a1.28,1.28,0,0,1,.163-.652,1.653,1.653,0,0,1,.465-.559,2.143,2.143,0,0,1,.628-.372,2.672,2.672,0,0,1,1.559,0,2.142,2.142,0,0,1,.628.372,1.652,1.652,0,0,1,.442.535,1.582,1.582,0,0,1,.163.651,1.49,1.49,0,0,1-.163.652,1.558,1.558,0,0,1-.442.512,2.14,2.14,0,0,1-.628.372,2.671,2.671,0,0,1-1.559,0,2.139,2.139,0,0,1-.628-.4,1.558,1.558,0,0,1-.442-.512,1.234,1.234,0,0,1-.163-.652Zm4.817,0a1.28,1.28,0,0,1,.163-.652,1.655,1.655,0,0,1,.3-.559,1.978,1.978,0,0,1,.652-.372,2.7,2.7,0,0,1,.791-.116,2.934,2.934,0,0,1,.768.116,2.138,2.138,0,0,1,.628.372,1.956,1.956,0,0,1,.419.535,1.558,1.558,0,0,1,.14.652,1.489,1.489,0,0,1-.14.651,1.839,1.839,0,0,1-.419.512,2.142,2.142,0,0,1-.628.372,2.93,2.93,0,0,1-.768.116,2.7,2.7,0,0,1-.791-.116,1.976,1.976,0,0,1-.652-.4,1.558,1.558,0,0,1-.442-.512,1.233,1.233,0,0,1-.163-.652Zm-19.9-23.27a1.583,1.583,0,0,0,.163.652,2.327,2.327,0,0,0,.442.512,2.471,2.471,0,0,0,.652.349,2.049,2.049,0,0,0,.768.14,2.328,2.328,0,0,0,.768-.14,2.468,2.468,0,0,0,.652-.349,1.467,1.467,0,0,0,.419-.512,1.28,1.28,0,0,0,.163-.652,1.374,1.374,0,0,0-.163-.675,1.767,1.767,0,0,0-.419-.535,2.465,2.465,0,0,0-.652-.349,2.328,2.328,0,0,0-.768-.14,2.049,2.049,0,0,0-.768.14,2.465,2.465,0,0,0-.652.349,3.184,3.184,0,0,0-.442.535,1.7,1.7,0,0,0-.163.675Zm6.632,11.845v-5.259a22.418,22.418,0,0,0-3.607.279,4.424,4.424,0,0,0-1.862.721,2.139,2.139,0,0,0-.559.791,4.281,4.281,0,0,0-.3,1.047,7.352,7.352,0,0,0,0,1.28,3.445,3.445,0,0,0,0,.489v1.047a5.7,5.7,0,0,0,.209,1.466,4.212,4.212,0,0,0,.489,1.14,3.609,3.609,0,0,0,.721.838,4.791,4.791,0,0,0,.861.535,3.4,3.4,0,0,0,.977.186,2.978,2.978,0,0,0,1.024-.209,3.63,3.63,0,0,0,1.373-1.094,3.864,3.864,0,0,0,.721-1.955v-1.3Zm-1.815-11.845a1.584,1.584,0,0,0,.163.652,1.838,1.838,0,0,0,.442.512,2.468,2.468,0,0,0,.652.349,2.327,2.327,0,0,0,.791.14,2.049,2.049,0,0,0,.768-.14,2.723,2.723,0,0,0,.628-.349,1.466,1.466,0,0,0,.419-.512,1.28,1.28,0,0,0,.163-.651,1.374,1.374,0,0,0-.163-.675,1.769,1.769,0,0,0-.419-.535,2.717,2.717,0,0,0-.628-.349,2.049,2.049,0,0,0-.768-.14,2.327,2.327,0,0,0-.791.14,2.465,2.465,0,0,0-.652.349,2.323,2.323,0,0,0-.442.535,1.7,1.7,0,0,0-.233.768Z" transform="translate(-200.66 -101.502)" fill="#003e63" fill-rule="evenodd"/>
      <path id="Path_20960" data-name="Path 20960" d="M275.6,297.226V285.382h1.792v1.675a4.3,4.3,0,0,1,3.77-1.931,4.817,4.817,0,0,1,1.955.4,3.072,3.072,0,0,1,1.35,1,3.747,3.747,0,0,1,.628,1.489,12.343,12.343,0,0,1,0,1.931v7.284h-2v-7.19a5.165,5.165,0,0,0-.233-1.838,2.07,2.07,0,0,0-.815-.977,2.7,2.7,0,0,0-1.4-.349,3.164,3.164,0,0,0-2.211.814,3.932,3.932,0,0,0-.931,3.071v6.469Zm122.82-5.259,2.025-.186a4.42,4.42,0,0,0,.675,2.025,3.676,3.676,0,0,0,1.629,1.28,6.213,6.213,0,0,0,2.513.489,5.82,5.82,0,0,0,2.187-.372,2.933,2.933,0,0,0,1.4-1,2.468,2.468,0,0,0,.465-1.419,2.071,2.071,0,0,0-.442-1.326,3.422,3.422,0,0,0-1.466-.954,24.013,24.013,0,0,0-2.909-.791,16.686,16.686,0,0,1-3.165-1.024,4.467,4.467,0,0,1-1.722-1.536,3.608,3.608,0,0,1-.582-2.024,4.189,4.189,0,0,1,.7-2.327,4.515,4.515,0,0,1,2.048-1.629,7.843,7.843,0,0,1,3-.558,8.147,8.147,0,0,1,3.211.582,4.653,4.653,0,0,1,2.118,1.722,4.981,4.981,0,0,1,.814,2.583l-2.071.163a3.4,3.4,0,0,0-1.14-2.327,4.491,4.491,0,0,0-2.839-.768,4.654,4.654,0,0,0-2.862.7,2.187,2.187,0,0,0-.908,1.745,1.862,1.862,0,0,0,.651,1.443A8.611,8.611,0,0,0,405,287.615a20.952,20.952,0,0,1,3.607,1.047,4.817,4.817,0,0,1,2.094,1.652,3.956,3.956,0,0,1,.675,2.327,4.3,4.3,0,0,1-.745,2.443,4.817,4.817,0,0,1-2.141,1.792,7.564,7.564,0,0,1-3.141.628,9.61,9.61,0,0,1-3.7-.628,5.4,5.4,0,0,1-2.327-1.955,5.491,5.491,0,0,1-.884-2.932Zm23.387.908,1.955.279a4.933,4.933,0,0,1-1.652,3.165,4.653,4.653,0,0,1-3.258,1.14,5,5,0,0,1-3.886-1.582,6.423,6.423,0,0,1-1.489-4.538,8.285,8.285,0,0,1,.652-3.351,4.235,4.235,0,0,1,1.931-2.141,5.586,5.586,0,0,1,2.816-.721,4.865,4.865,0,0,1,3.141.977,4.654,4.654,0,0,1,1.582,2.769l-1.955.3a3.258,3.258,0,0,0-.977-1.792,2.466,2.466,0,0,0-1.722-.605,3.165,3.165,0,0,0-2.467,1.07,5.212,5.212,0,0,0-.931,3.444,5.305,5.305,0,0,0,.908,3.444,2.955,2.955,0,0,0,2.327,1.094,2.909,2.909,0,0,0,1.978-.721,3.584,3.584,0,0,0,1-2.327Zm3.677,4.352V280.937h2V286.8a4.514,4.514,0,0,1,3.537-1.629,4.888,4.888,0,0,1,2.327.512,3.1,3.1,0,0,1,1.4,1.443,6.632,6.632,0,0,1,.4,2.653v7.493h-2V289.78a3.072,3.072,0,0,0-.652-2.187,2.327,2.327,0,0,0-1.815-.675,3.282,3.282,0,0,0-1.675.442,2.886,2.886,0,0,0-1.117,1.257,6.1,6.1,0,0,0-.326,2.187v6.469Zm13.962-5.934a5.05,5.05,0,0,0,.977,3.4,3.211,3.211,0,0,0,2.513,1.14,3.165,3.165,0,0,0,2.49-1.14,5.167,5.167,0,0,0,1-3.444,4.934,4.934,0,0,0-1-3.328,3.351,3.351,0,0,0-5,0A5.027,5.027,0,0,0,439.443,291.292Zm-2.048,0a6.05,6.05,0,0,1,1.815-4.84,5.492,5.492,0,0,1,3.723-1.327,5.26,5.26,0,0,1,3.979,1.606,5.98,5.98,0,0,1,1.559,4.4,7.656,7.656,0,0,1-.7,3.584,4.653,4.653,0,0,1-1.978,2.024,5.817,5.817,0,0,1-2.862.721,5.306,5.306,0,0,1-4.026-1.582,6.329,6.329,0,0,1-1.513-4.654Zm14.73,0a5.05,5.05,0,0,0,.977,3.4,3.211,3.211,0,0,0,2.513,1.14,3.165,3.165,0,0,0,2.49-1.14,5.166,5.166,0,0,0,1-3.444,4.934,4.934,0,0,0-1-3.328,3.351,3.351,0,0,0-5,0,5.028,5.028,0,0,0-.977,3.374Zm-2.071,0a6.05,6.05,0,0,1,1.838-4.84,5.492,5.492,0,0,1,3.723-1.327,5.259,5.259,0,0,1,3.979,1.606,6.074,6.074,0,0,1,1.559,4.4,7.655,7.655,0,0,1-.7,3.584,4.655,4.655,0,0,1-1.978,2.024,5.817,5.817,0,0,1-2.862.721,5.306,5.306,0,0,1-4.026-1.582,6.353,6.353,0,0,1-1.536-4.654Zm13.4,5.934V280.937h2v16.289Zm4.305-3.537,1.978-.326a2.863,2.863,0,0,0,.931,1.815,3.188,3.188,0,0,0,2.141.652,3.234,3.234,0,0,0,2.071-.558,1.676,1.676,0,0,0,.652-1.326,1.187,1.187,0,0,0-.582-1.07,9.309,9.309,0,0,0-2.071-.675,21.289,21.289,0,0,1-3.048-.954,2.931,2.931,0,0,1-1.28-1.14,2.84,2.84,0,0,1-.442-1.582,3.235,3.235,0,0,1,.349-1.466,3.537,3.537,0,0,1,1-1.117,4.654,4.654,0,0,1,1.257-.582,7.26,7.26,0,0,1,4.189.163,3.445,3.445,0,0,1,1.536,1.094,4,4,0,0,1,.7,1.838l-1.955.279a2.327,2.327,0,0,0-.768-1.443,2.863,2.863,0,0,0-1.815-.512,3.234,3.234,0,0,0-1.955.442,1.349,1.349,0,0,0-.605,1.07,1.118,1.118,0,0,0,.256.7,1.63,1.63,0,0,0,.768.535,14.34,14.34,0,0,0,1.769.512c1.4.4,2.327.7,2.955.931a3.328,3.328,0,0,1,1.326,1.047,2.954,2.954,0,0,1,.489,1.722A3.351,3.351,0,0,1,477,295.62a3.792,3.792,0,0,1-1.675,1.373,6.586,6.586,0,0,1-2.49.465,5.445,5.445,0,0,1-3.514-.954,4.445,4.445,0,0,1-1.559-2.816ZM205.554,290.5h5.562l-1.7-4.514c-.535-1.373-.908-2.513-1.187-3.421a18.616,18.616,0,0,1-.908,3.141l-1.769,4.794Zm-4.654,6.725,6.26-16.289h2.327l6.655,16.289h-2.467l-1.885-4.957h-6.981l-1.769,4.957Zm18.453,0h2.141l2.327-9.122.489,2.024,1.885,7.1h2.071l3.7-11.845h-1.955l-2.025,6.841-.7,2.327-.582-2.327-1.769-6.865h-2.071l-1.862,6.981c-.372,1.489-.582,2.327-.605,2.443l-.675-2.56-1.885-6.818h-2.094l3.56,11.845Zm21.921-5.934a15.107,15.107,0,0,1-3.281.745,8.165,8.165,0,0,0-1.769.4,2,2,0,0,0-.791.652,1.769,1.769,0,0,0,.326,2.327,2.7,2.7,0,0,0,1.792.535,4,4,0,0,0,2.048-.512,3.025,3.025,0,0,0,1.326-1.373,4.653,4.653,0,0,0,.326-2v-.721Zm.163,4.445a8,8,0,0,1-2.164,1.35,6.212,6.212,0,0,1-2.327.372,4.328,4.328,0,0,1-3-.931,3.165,3.165,0,0,1-1.047-2.443,3.327,3.327,0,0,1,.4-1.582,3.1,3.1,0,0,1,1.047-1.14,4.282,4.282,0,0,1,1.443-.652,11.63,11.63,0,0,1,1.769-.3,16.922,16.922,0,0,0,3.584-.7V289.2a2.141,2.141,0,0,0-.582-1.722,3.3,3.3,0,0,0-2.327-.675,3.56,3.56,0,0,0-2.094.489,3,3,0,0,0-1,1.769l-1.955-.279a4.655,4.655,0,0,1,.884-2.048,3.84,3.84,0,0,1,1.768-1.187,7.936,7.936,0,0,1,2.7-.419,6.7,6.7,0,0,1,2.467.372,3.351,3.351,0,0,1,1.4.884,3.118,3.118,0,0,1,.628,1.373,11.151,11.151,0,0,1,0,1.838v2.653a33.321,33.321,0,0,0,0,3.537,5.563,5.563,0,0,0,.489,1.443h-2.094a4.816,4.816,0,0,1-.372-1.489Zm6.446-5.562h6.586a3.793,3.793,0,0,0-.745-2.327,3,3,0,0,0-2.49-1.164,3.188,3.188,0,0,0-2.327.908,3.7,3.7,0,0,0-1.047,2.49Zm6.562,3.211,2.094.279a5,5,0,0,1-1.815,2.792,5.376,5.376,0,0,1-3.374,1,5.469,5.469,0,0,1-4.119-1.582,6.284,6.284,0,0,1-1.513-4.468,6.516,6.516,0,0,1,1.536-4.654,5.213,5.213,0,0,1,3.979-1.652,5.05,5.05,0,0,1,3.863,1.606,6.47,6.47,0,0,1,1.489,4.538v.535h-8.912a4.4,4.4,0,0,0,1.117,2.979,3.211,3.211,0,0,0,2.467,1.047,3.119,3.119,0,0,0,1.862-.582,3.747,3.747,0,0,0,1.233-1.862Zm4.654,3.84V280.937h2.025v16.289Zm33.486-1.745.279,1.769a7.469,7.469,0,0,1-1.513.163,3.793,3.793,0,0,1-1.7-.326,1.907,1.907,0,0,1-.838-.931,7.238,7.238,0,0,1-.233-2.327v-6.818h-1.489v-1.559h1.489v-3l2-1.21v4.142h2v1.559h-2v6.981a3.651,3.651,0,0,0,0,1.094.815.815,0,0,0,.349.4,1.394,1.394,0,0,0,.675.14h.884Zm3.491-5.259h6.585a3.957,3.957,0,0,0-.768-2.327,2.979,2.979,0,0,0-2.467-1.164,3.211,3.211,0,0,0-2.327.908,3.816,3.816,0,0,0-1.024,2.49Zm6.562,3.211,2.071.279a5,5,0,0,1-1.815,2.793,5.329,5.329,0,0,1-3.374,1,5.422,5.422,0,0,1-4.1-1.582,6.19,6.19,0,0,1-1.512-4.468,6.515,6.515,0,0,1,1.536-4.654,5.143,5.143,0,0,1,3.979-1.652,5.073,5.073,0,0,1,3.863,1.606,6.47,6.47,0,0,1,1.489,4.538v.535h-8.819a4.515,4.515,0,0,0,1.094,2.979,3.258,3.258,0,0,0,2.467,1.047,3.142,3.142,0,0,0,1.885-.582,3.909,3.909,0,0,0,1.233-1.862Zm4.654,3.84V285.428h1.815v1.815a5.142,5.142,0,0,1,1.257-1.675,2.327,2.327,0,0,1,1.3-.4,3.956,3.956,0,0,1,2.048.628l-.7,1.862a2.933,2.933,0,0,0-1.466-.419,1.862,1.862,0,0,0-1.163.4,2.141,2.141,0,0,0-.745,1.094,7.541,7.541,0,0,0-.349,2.327v6.19Zm7.609,0V285.428h1.815V287.1a4.258,4.258,0,0,1,3.747-1.931,5,5,0,0,1,1.978.4,3,3,0,0,1,1.326,1,3.747,3.747,0,0,1,.628,1.489,11.629,11.629,0,0,1,.116,1.931v7.284h-2v-7.19a5.771,5.771,0,0,0-.233-1.838,2.118,2.118,0,0,0-.838-.977,2.7,2.7,0,0,0-1.4-.349,3.212,3.212,0,0,0-2.211.815,4.026,4.026,0,0,0-.907,3.072v6.469Zm20.268-5.934a15.1,15.1,0,0,1-3.281.745,8.165,8.165,0,0,0-1.769.4,1.838,1.838,0,0,0-.791.652,1.768,1.768,0,0,0,.326,2.327,2.7,2.7,0,0,0,1.792.535,4,4,0,0,0,2.048-.512,3.026,3.026,0,0,0,1.326-1.373,4.654,4.654,0,0,0,.326-2v-.721Zm.163,4.445a8,8,0,0,1-2.164,1.35,6.211,6.211,0,0,1-2.211.372,4.328,4.328,0,0,1-3-.931,3.164,3.164,0,0,1-1.047-2.443,3.327,3.327,0,0,1,.4-1.582,3.1,3.1,0,0,1,1.047-1.14,4.282,4.282,0,0,1,1.443-.651,11.631,11.631,0,0,1,1.769-.3,16.926,16.926,0,0,0,3.584-.7c0-.279,0-.442,0-.512a2.141,2.141,0,0,0-.582-1.722,3.3,3.3,0,0,0-2.327-.675,3.56,3.56,0,0,0-2.094.489,2.886,2.886,0,0,0-1,1.769l-1.955-.279a4.656,4.656,0,0,1,.884-2.048,3.839,3.839,0,0,1,1.769-1.187,7.931,7.931,0,0,1,2.7-.419,6.8,6.8,0,0,1,2.467.372,3.35,3.35,0,0,1,1.4.884,3.746,3.746,0,0,1,.628,1.373,14.638,14.638,0,0,1,0,1.838v2.653a33.306,33.306,0,0,0,.116,3.537,5.563,5.563,0,0,0,.489,1.443h-2.094a4.815,4.815,0,0,1-.372-1.489Zm9.308-.3.256,1.769a7.468,7.468,0,0,1-1.512.163,3.631,3.631,0,0,1-1.675-.326,1.908,1.908,0,0,1-.838-.931,6.985,6.985,0,0,1-.256-2.327v-6.818h-1.489v-1.559h1.489v-3l2-1.21v4.142h2.025v1.559h-2.025v6.981a3.4,3.4,0,0,0,.116,1.094.815.815,0,0,0,.349.4,1.279,1.279,0,0,0,.675.14h.884Zm1.978,1.792V285.428h2v11.844Zm0-13.962v-2.327h2v2.327Zm6.353,8.121a4.933,4.933,0,0,0,1,3.4,3.281,3.281,0,0,0,4.98,0,5.027,5.027,0,0,0,1-3.444,4.817,4.817,0,0,0-1-3.328,3.328,3.328,0,0,0-4.98,0,4.91,4.91,0,0,0-1,3.374Zm-2.048,0a5.98,5.98,0,0,1,1.838-4.84,5.422,5.422,0,0,1,3.7-1.326,5.352,5.352,0,0,1,4,1.606,6.073,6.073,0,0,1,1.536,4.4,7.981,7.981,0,0,1-.675,3.584,4.793,4.793,0,0,1-2,2.024,5.68,5.68,0,0,1-2.862.721,5.259,5.259,0,0,1-4-1.582,6.353,6.353,0,0,1-1.536-4.654Zm13.427,5.934V285.521h1.815V287.2a4.259,4.259,0,0,1,3.747-1.931,5,5,0,0,1,1.978.4,3,3,0,0,1,1.326,1,3.746,3.746,0,0,1,.628,1.489,11.613,11.613,0,0,1,.116,1.931v7.284h-2v-7.19a5.773,5.773,0,0,0-.233-1.838,2.117,2.117,0,0,0-.838-.977,2.7,2.7,0,0,0-1.4-.349,3.211,3.211,0,0,0-2.211.814,4.026,4.026,0,0,0-.931,3V297.3Zm20.268-5.934a15.1,15.1,0,0,1-3.281.745,8.17,8.17,0,0,0-1.769.4,1.838,1.838,0,0,0-.791.652,1.769,1.769,0,0,0,.326,2.327,2.7,2.7,0,0,0,1.792.535,4,4,0,0,0,2.048-.512,3.024,3.024,0,0,0,1.326-1.373,4.654,4.654,0,0,0,.326-2v-.721Zm.14,4.445a7.916,7.916,0,0,1-2.141,1.35,6.308,6.308,0,0,1-2.211.372,4.328,4.328,0,0,1-3-.931,3.165,3.165,0,0,1-1.047-2.443,3.329,3.329,0,0,1,.4-1.582,3.235,3.235,0,0,1,1.024-1.14,4.422,4.422,0,0,1,1.466-.651,11.152,11.152,0,0,1,1.769-.3,16.922,16.922,0,0,0,3.584-.7c0-.279,0-.442,0-.512a2.327,2.327,0,0,0-.582-1.722,3.3,3.3,0,0,0-2.327-.675,3.562,3.562,0,0,0-2.094.489,2.885,2.885,0,0,0-1,1.769l-1.955-.279a5,5,0,0,1,.861-2.048,4.048,4.048,0,0,1,1.792-1.187,7.938,7.938,0,0,1,2.7-.419,6.8,6.8,0,0,1,2.467.372,3.354,3.354,0,0,1,1.4.884,3.749,3.749,0,0,1,.628,1.373,14.638,14.638,0,0,1,0,1.838v2.653a33.274,33.274,0,0,0,.116,3.537,5.563,5.563,0,0,0,.489,1.443h-2.094a4.819,4.819,0,0,1-.4-1.489Zm4.91,1.489V281.077h2.024v16.289Zm-119.772,0V281.077h2.164v16.289Z" transform="translate(-200.342 -81.837)" fill="#003e63" fill-rule="evenodd"/>
      <path id="Path_20961" data-name="Path 20961" d="M292.425,219.554c-6.143-8.657-4.421-16.1,4.049-24.364a13.567,13.567,0,0,0,.7,13.5l2.327,3.072c3.374,4.189,3.444,9.424-3.886,17.709,1.536-4.026-.977-6.981-2.327-8.726l-.838-1.187Zm10.914-13.962a63.109,63.109,0,0,1,12.24,122.82l4.654-5.445a59.665,59.665,0,0,0-14.148-113.535,19.671,19.671,0,0,0-1.21-1.745l-1.536-2.094ZM287.05,330.716a6.633,6.633,0,0,0,2.583-2.49,2.718,2.718,0,0,0,0-.628,59.688,59.688,0,0,1-15.009-115,44.859,44.859,0,0,1,2.467-4.514,63.109,63.109,0,0,0,9.983,122.541Zm18.337-87.1,18.1,25.6c13.38,18.849,8.075,29.553,8.075,29.553a33.532,33.532,0,0,0-.582-38.629l-20.478-28.39c-3.421-4.654-2.932-8.8-1.815-13.171-7.144,8.494-10.1,15.568-3.374,25.039Zm-31.88-12.985c-1.513,14.125,15.009,16.289.908,31.671C276,253.691,260.452,247.618,273.507,230.631Zm13.613-24.48c-2.979,3.514-16.126,19.5-4.654,35.7l16.685,23.27c3.4,4.77-.233,9.308-2.118,13.8,9.308-9.029,14.893-14.94,6.05-27.389l-12.17-17.22c-7.26-10.239-8.494-19.663-3.816-28.157Zm21.385,81.678,7.679,10.588a4.654,4.654,0,0,0-.14-5.911l-7.726-10.867a5.468,5.468,0,0,0,.186,6.19Zm4.933-21.571c-.372.419-1.047,1.14-1.815,2.071l-6.981,8.168c-4.654,5.119-8.214,13.287-3.979,19.2l6.795,9.8a13.755,13.755,0,0,1,2.071,6.423q5.515-6.492,11.053-12.961c1.257,1.675,2.653,3.653-.721,7.609l-7.423,8.7c-3.188,3.746-3.281,5.771-2.606,9.192,3.793-4.445,7.609-8.866,11.426-13.31,7.284-8.517,9.657-17.1,4.817-23.829S320,278.73,315.347,272.238a9.308,9.308,0,0,1-1.931-5.98ZM273.3,222.37c-14.753,13.334-25.015,31.438-12.5,48.867l29.181,40.793c12.729,17.8,4.4,22.107-1.257,25.6,8.121.605,26.5-9.68,9.634-33.253-4.352-6.074-6.12-8.028-10.309-14.195v-.116l2.467-2.816h0c6.795-8.354,6.7-14.4.233-23.014l-3.56-4.654a6.423,6.423,0,0,1-1.373-6.679c-1.536,1.885-9.82,9.936-3.816,18.011l2.932,3.909a16.708,16.708,0,0,1,3.933,7.353,7.866,7.866,0,0,1-2.653,5.375L269.225,263.7c-12.077-16.848.046-35.138,4.072-41.351Z" transform="translate(-157.482 -195.19)" fill="#154572" fill-rule="evenodd"/>
    </g>
  </g>
</svg>
